<svg width="27" height="27" fill="none" xmlns="http://www.w3.org/2000/svg"><path d="M26.796 15.033l-6.323-3.614V4.135a.376.376 0 00-.186-.335L13.74.052a.389.389 0 00-.388 0L6.791 3.8a.401.401 0 00-.208.335v7.227l-6.401 3.67a.377.377 0 00-.182.336v7.497a.385.385 0 00.196.335l6.55 3.748a.394.394 0 00.39 0l6.364-3.642 6.364 3.642a.394.394 0 00.39 0l6.55-3.748a.39.39 0 00.196-.335v-7.497a.394.394 0 00-.204-.335zM6.527 25.943L.781 22.64v-6.603l1.897 1.074v4.579a.375.375 0 00.106.275l1.911 1.874a.386.386 0 00.596-.061.384.384 0 00.065-.215l-.02-4.918 1.191.693v6.604zm-1.945-3.306L3.46 21.53V17.1l3.224-1.841 1.057.643L4.76 17.64a.385.385 0 00-.189.334l.012 4.663zm2.36-3.968l-1.213-.698 2.963-1.729a.389.389 0 00.192-.33.384.384 0 00-.187-.333l-1.815-1.1a.394.394 0 00-.398-.006l-3.446 1.963-1.866-1.068 5.769-3.301 5.768 3.301-5.768 3.3zm6.168 3.972l-5.802 3.301V19.34l5.802-3.301v6.603zm.055-7.91l-5.801-3.3V4.806L9.26 5.879v4.58a.388.388 0 00.12.275l1.917 1.874a.393.393 0 00.667-.277l-.006-4.917 1.206.692v6.626zm-1.986-3.326l-1.138-1.109V5.868l3.238-1.841 1.064.643-2.976 1.738a.39.39 0 00-.193.334l.005 4.663zm1.16-4.666l2.963-1.73a.39.39 0 00.192-.33.384.384 0 00-.186-.333l-1.816-1.1a.393.393 0 00-.398-.005L9.648 5.203 7.782 4.135 13.55.834l5.77 3.301-5.769 3.3-1.213-.696zm7.353-1.933v6.567l-5.746 3.301V8.107l5.746-3.301zm0 21.136l-5.801-3.312v-6.603l1.896 1.085v4.579a.381.381 0 00.111.275l1.914 1.874a.39.39 0 00.662-.276l.003-4.918 1.215.693v6.604zm-1.995-3.305l-1.129-1.108V17.1l3.229-1.841 1.06.643-2.981 1.738a.389.389 0 00-.193.334l.014 4.663zm2.363-3.968l-1.212-.698 2.963-1.729a.389.389 0 00.192-.33.384.384 0 00-.186-.333L20 14.479a.393.393 0 00-.398-.006l-3.446 1.962-1.866-1.067 5.769-3.302 5.768 3.302-5.768 3.3zm6.159 3.972l-5.746 3.301V19.34l5.746-3.301v6.603z" fill="#312D75"/></svg>