<svg width="29" height="27" fill="none" xmlns="http://www.w3.org/2000/svg"><path d="M23.587 8.513c-.156-.339-.6-.455-.929-.298-5.05 2.434-7.53 6.678-8.658 11.041C12.606 9.98 8.572 7.151 6.862 5.951c-.213-.15-.38-.26-.472-.353a.647.647 0 00-.93 0 .688.688 0 000 .955c.13.132.355.298.66.512 1.927 1.35 7.048 4.943 7.048 19.26 0 .373.295.675.659.675a.667.667 0 00.658-.674c0-5.784 1.516-13.41 8.734-16.888l.107-.053c.328-.16.416-.534.26-.872z" fill="#312D75"/><path d="M28.342 2.67c-3.51 0-8.467.3-11.001 2.897-2.233 2.289-1.887 7.12 0 9.055.984 1.007 2.732 1.586 4.498 1.586 1.625 0 3.263-.489 4.335-1.585C28.706 12.026 29 6.943 29 3.345a.667.667 0 00-.658-.675zM25.24 13.667c-1.65 1.69-5.563 1.444-6.97 0-1.408-1.443-1.649-5.455 0-7.145 2.045-2.097 6.2-2.46 9.407-2.499-.038 3.29-.392 7.55-2.437 9.644zM11.659 2.897C9.125.301 4.168 0 .659 0A.667.667 0 000 .675c0 3.598.292 8.68 2.826 11.278 1.07 1.096 2.709 1.586 4.333 1.586 1.766 0 3.516-.579 4.5-1.588 1.887-1.934 2.233-6.766 0-9.054zm-.93 8.101c-1.41 1.444-5.322 1.69-6.97 0-2.046-2.096-2.4-6.355-2.438-9.644 3.207.04 7.362.402 9.407 2.499 1.649 1.69 1.408 5.702 0 7.145z" fill="#312D75"/></svg>