<svg width="21" height="21" viewBox="0 0 21 21" fill="none" xmlns="http://www.w3.org/2000/svg">
<path d="M10.7537 0.210464C5.23873 0.210464 0.76709 4.68417 0.76709 10.2016C0.76709 15.7191 5.23873 20.1937 10.7537 20.1937C16.2686 20.1937 20.7411 15.7191 20.7411 10.2016C20.7411 4.68417 16.2686 0.210464 10.7537 0.210464ZM12.8327 15.6954C12.3186 15.8984 11.9094 16.0524 11.6025 16.159C11.2965 16.2655 10.9405 16.3188 10.5355 16.3188C9.91329 16.3188 9.42884 16.1666 9.08389 15.8629C8.73894 15.5593 8.56731 15.1744 8.56731 14.7066C8.56731 14.5248 8.58 14.3387 8.60536 14.1492C8.63157 13.9598 8.673 13.7466 8.72964 13.5072L9.37304 11.2336C9.42968 11.0154 9.47872 10.8081 9.51761 10.6153C9.5565 10.4207 9.5751 10.2422 9.5751 10.0798C9.5751 9.79056 9.51508 9.58756 9.39587 9.47337C9.27496 9.35918 9.04753 9.30335 8.7085 9.30335C8.54279 9.30335 8.37201 9.32788 8.197 9.37948C8.02368 9.43277 7.87319 9.48098 7.74975 9.52835L7.91969 8.82798C8.34073 8.65628 8.74401 8.5091 9.1287 8.3873C9.51338 8.2638 9.87693 8.2029 10.2193 8.2029C10.8374 8.2029 11.3142 8.35346 11.6499 8.6512C11.9838 8.94979 12.1521 9.33803 12.1521 9.81509C12.1521 9.91406 12.1402 10.0883 12.1174 10.337C12.0946 10.5865 12.0515 10.814 11.9889 11.023L11.3489 13.2898C11.2965 13.4717 11.25 13.6798 11.2077 13.9124C11.1663 14.145 11.146 14.3226 11.146 14.4419C11.146 14.743 11.2128 14.9486 11.348 15.0577C11.4816 15.1668 11.7158 15.2218 12.0472 15.2218C12.2036 15.2218 12.3787 15.1939 12.5765 15.1397C12.7726 15.0856 12.9147 15.0374 13.0043 14.9959L12.8327 15.6954ZM12.7194 6.49428C12.4209 6.77172 12.0616 6.91044 11.6414 6.91044C11.2221 6.91044 10.8602 6.77172 10.5592 6.49428C10.2599 6.21685 10.1086 5.87935 10.1086 5.48519C10.1086 5.09187 10.2608 4.75353 10.5592 4.47355C10.8602 4.19273 11.2221 4.05316 11.6414 4.05316C12.0616 4.05316 12.4218 4.19273 12.7194 4.47355C13.0178 4.75353 13.1675 5.09187 13.1675 5.48519C13.1675 5.8802 13.0178 6.21685 12.7194 6.49428Z" fill="#312D75"/>
</svg>
