<svg width="900" height="350" fill="none" xmlns="http://www.w3.org/2000/svg"><g clip-path="url(#clip0)"><path d="M342.107 149.34c-.319.525-.65.913-.992 1.164-.32.228-.742.342-1.266.342-.502 0-1.05-.171-1.643-.514a28.695 28.695 0 00-2.019-1.163 18.483 18.483 0 00-2.67-1.13c-1.004-.365-2.179-.547-3.525-.547-2.373 0-4.152.536-5.339 1.608-1.186 1.05-1.779 2.43-1.779 4.141 0 1.096.319 2.008.958 2.738.662.708 1.517 1.324 2.567 1.848 1.072.525 2.281.993 3.627 1.404 1.347.41 2.727.867 4.141 1.369a34.35 34.35 0 014.142 1.711 14.232 14.232 0 013.593 2.498c1.072 1.004 1.928 2.236 2.567 3.696.661 1.438.992 3.194.992 5.271 0 2.259-.399 4.38-1.198 6.365a15.043 15.043 0 01-3.388 5.168c-1.483 1.46-3.319 2.613-5.51 3.457-2.167.844-4.631 1.266-7.392 1.266-1.574 0-3.149-.16-4.723-.479a27.74 27.74 0 01-4.518-1.335 25.242 25.242 0 01-4.072-2.053 17.982 17.982 0 01-3.354-2.67l3.012-4.859c.251-.366.581-.662.992-.89a2.456 2.456 0 011.301-.377c.616 0 1.266.228 1.95.685.685.456 1.472.958 2.362 1.506.89.547 1.916 1.049 3.08 1.505 1.186.457 2.601.685 4.244.685 2.395 0 4.243-.548 5.544-1.643 1.323-1.095 1.985-2.726 1.985-4.894 0-1.255-.331-2.27-.993-3.046-.638-.776-1.483-1.426-2.532-1.951-1.05-.524-2.247-.969-3.594-1.334-1.346-.388-2.726-.81-4.141-1.267a33.927 33.927 0 01-4.141-1.642 12.8 12.8 0 01-3.593-2.533c-1.05-1.049-1.905-2.35-2.567-3.901-.639-1.552-.958-3.48-.958-5.784 0-1.848.365-3.639 1.095-5.373.73-1.734 1.802-3.274 3.217-4.621 1.414-1.346 3.148-2.429 5.202-3.251 2.076-.821 4.449-1.232 7.118-1.232 2.989 0 5.75.468 8.283 1.403 2.555.913 4.711 2.191 6.468 3.833l-2.533 4.826zm53.032 31.931c1.666 0 3.16-.274 4.484-.822 1.323-.57 2.441-1.369 3.354-2.395.912-1.027 1.608-2.27 2.087-3.731.479-1.46.719-3.103.719-4.928v-29.569h10.267v29.569c0 3.012-.49 5.784-1.471 8.316-.959 2.51-2.339 4.678-4.142 6.503-1.802 1.825-3.992 3.251-6.571 4.278-2.578 1.027-5.487 1.54-8.727 1.54-3.239 0-6.16-.513-8.761-1.54-2.578-1.027-4.768-2.453-6.571-4.278-1.802-1.825-3.194-3.993-4.175-6.503-.958-2.532-1.438-5.304-1.438-8.316v-29.569h10.268v29.569c0 1.825.239 3.468.718 4.928.479 1.461 1.175 2.704 2.088 3.731.913 1.026 2.031 1.825 3.354 2.395 1.323.548 2.829.822 4.517.822z" fill="#312D75"/><path fill-rule="evenodd" clip-rule="evenodd" d="M473.281 141.023c-2.465-.798-5.396-1.197-8.796-1.197h-16.77v49.658h10.267v-17.077h6.503c3.308 0 6.194-.4 8.659-1.198 2.464-.821 4.506-1.962 6.126-3.422a13.71 13.71 0 003.627-5.237c.799-2.03 1.198-4.266 1.198-6.708 0-2.304-.388-4.437-1.163-6.399a12.812 12.812 0 00-3.525-5.066c-1.598-1.437-3.64-2.555-6.126-3.354zm-1.746 21.185c-1.483 1.552-3.833 2.327-7.05 2.327h-6.503v-16.906h6.503c1.597 0 2.977.194 4.141.582 1.164.387 2.122.946 2.875 1.676a6.332 6.332 0 011.711 2.601c.388 1.004.582 2.122.582 3.354 0 2.693-.753 4.815-2.259 6.366z" fill="#312D75"/><path d="M522.868 147.868v12.766h16.564v7.769h-16.564v13.039h21.287v8.042h-31.623v-49.658h31.623v8.042h-21.287z" fill="#312D75"/><path fill-rule="evenodd" clip-rule="evenodd" d="M604.062 189.484h9.274l-11.567-17.864a8.635 8.635 0 00-1.54-1.814 9.508 9.508 0 00-1.849-1.335c1.666-.57 3.149-1.323 4.45-2.259a14.687 14.687 0 003.285-3.217 13.485 13.485 0 002.019-4.004c.479-1.483.719-3.046.719-4.689 0-2.122-.365-4.061-1.095-5.818-.73-1.779-1.882-3.308-3.457-4.586-1.574-1.277-3.593-2.27-6.057-2.977-2.465-.73-5.431-1.095-8.899-1.095h-15.606v49.658h10.267v-18.925h3.491c.913 0 1.597.137 2.054.41.479.274.912.708 1.3 1.301l9.446 15.23c.776 1.323 2.031 1.984 3.765 1.984zm-10.473-26.763c-1.209.411-2.646.616-4.312.616h-5.271v-15.708h5.339c3.195 0 5.567.65 7.119 1.95 1.574 1.301 2.361 3.126 2.361 5.476 0 1.187-.182 2.282-.547 3.286a6.937 6.937 0 01-1.711 2.635c-.776.73-1.769 1.312-2.978 1.745z" fill="#312D75"/><path d="M682.634 139.826v49.658h-5.305c-.798 0-1.472-.125-2.019-.376-.548-.274-1.084-.73-1.609-1.369l-24.744-31.486c.069.799.115 1.586.137 2.362.046.775.069 1.494.069 2.156v28.713h-9.07v-49.658h5.408c.433 0 .798.022 1.095.068.319.023.605.103.856.24.251.114.49.273.718.479.228.205.479.479.753.821l24.915 31.623a52.07 52.07 0 01-.205-2.498 41.745 41.745 0 01-.069-2.328v-28.405h9.07zm151.413 0l-19.987 49.658h-9.309l-19.987-49.658h8.282c.89 0 1.609.216 2.156.65.571.411.993.947 1.267 1.608l10.746 28.612c.411 1.072.81 2.247 1.198 3.525a54.68 54.68 0 011.129 3.97c.297-1.392.616-2.715.959-3.97a42.4 42.4 0 011.163-3.525l10.678-28.612c.228-.57.627-1.083 1.198-1.54.593-.479 1.323-.718 2.19-.718h8.317z" fill="#312D75"/><path fill-rule="evenodd" clip-rule="evenodd" d="M892.026 189.484H900l-19.371-49.658h-10.507l-19.405 49.658h8.043c.867 0 1.586-.228 2.156-.684.57-.479.97-1.004 1.198-1.574l3.354-9.48h19.781l3.354 9.48a4.021 4.021 0 001.232 1.642c.571.411 1.301.616 2.191.616zm-14.648-34.052l5.373 15.195H868l5.339-15.127c.32-.798.651-1.734.993-2.806a48.78 48.78 0 001.027-3.559c.319 1.254.65 2.418.992 3.49a57.137 57.137 0 001.027 2.807z" fill="#312D75"/><path d="M342.107 149.34c-.319.525-.65.913-.992 1.164-.32.228-.742.342-1.266.342-.502 0-1.05-.171-1.643-.514a28.695 28.695 0 00-2.019-1.163 18.483 18.483 0 00-2.67-1.13c-1.004-.365-2.179-.547-3.525-.547-2.373 0-4.152.536-5.339 1.608-1.186 1.05-1.779 2.43-1.779 4.141 0 1.096.319 2.008.958 2.738.662.708 1.517 1.324 2.567 1.848 1.072.525 2.281.993 3.627 1.404 1.347.41 2.727.867 4.141 1.369a34.35 34.35 0 014.142 1.711 14.232 14.232 0 013.593 2.498c1.072 1.004 1.928 2.236 2.567 3.696.661 1.438.992 3.194.992 5.271 0 2.259-.399 4.38-1.198 6.365a15.043 15.043 0 01-3.388 5.168c-1.483 1.46-3.319 2.613-5.51 3.457-2.167.844-4.631 1.266-7.392 1.266-1.574 0-3.149-.16-4.723-.479a27.74 27.74 0 01-4.518-1.335 25.242 25.242 0 01-4.072-2.053 17.982 17.982 0 01-3.354-2.67l3.012-4.859c.251-.366.581-.662.992-.89a2.456 2.456 0 011.301-.377c.616 0 1.266.228 1.95.685.685.456 1.472.958 2.362 1.506.89.547 1.916 1.049 3.08 1.505 1.186.457 2.601.685 4.244.685 2.395 0 4.243-.548 5.544-1.643 1.323-1.095 1.985-2.726 1.985-4.894 0-1.255-.331-2.27-.993-3.046-.638-.776-1.483-1.426-2.532-1.951-1.05-.524-2.247-.969-3.594-1.334-1.346-.388-2.726-.81-4.141-1.267a33.927 33.927 0 01-4.141-1.642 12.8 12.8 0 01-3.593-2.533c-1.05-1.049-1.905-2.35-2.567-3.901-.639-1.552-.958-3.48-.958-5.784 0-1.848.365-3.639 1.095-5.373.73-1.734 1.802-3.274 3.217-4.621 1.414-1.346 3.148-2.429 5.202-3.251 2.076-.821 4.449-1.232 7.118-1.232 2.989 0 5.75.468 8.283 1.403 2.555.913 4.711 2.191 6.468 3.833l-2.533 4.826zm53.032 31.931c1.666 0 3.16-.274 4.484-.822 1.323-.57 2.441-1.369 3.354-2.395.912-1.027 1.608-2.27 2.087-3.731.479-1.46.719-3.103.719-4.928v-29.569h10.267v29.569c0 3.012-.49 5.784-1.471 8.316-.959 2.51-2.339 4.678-4.142 6.503-1.802 1.825-3.992 3.251-6.571 4.278-2.578 1.027-5.487 1.54-8.727 1.54-3.239 0-6.16-.513-8.761-1.54-2.578-1.027-4.768-2.453-6.571-4.278-1.802-1.825-3.194-3.993-4.175-6.503-.958-2.532-1.438-5.304-1.438-8.316v-29.569h10.268v29.569c0 1.825.239 3.468.718 4.928.479 1.461 1.175 2.704 2.088 3.731.913 1.026 2.031 1.825 3.354 2.395 1.323.548 2.829.822 4.517.822z" stroke="#312D75" stroke-width="2"/><path clip-rule="evenodd" d="M473.281 141.023c-2.465-.798-5.396-1.197-8.796-1.197h-16.77v49.658h10.267v-17.077h6.503c3.308 0 6.194-.4 8.659-1.198 2.464-.821 4.506-1.962 6.126-3.422a13.71 13.71 0 003.627-5.237c.799-2.03 1.198-4.266 1.198-6.708 0-2.304-.388-4.437-1.163-6.399a12.812 12.812 0 00-3.525-5.066c-1.598-1.437-3.64-2.555-6.126-3.354zm-1.746 21.185c-1.483 1.552-3.833 2.327-7.05 2.327h-6.503v-16.906h6.503c1.597 0 2.977.194 4.141.582 1.164.387 2.122.946 2.875 1.676a6.332 6.332 0 011.711 2.601c.388 1.004.582 2.122.582 3.354 0 2.693-.753 4.815-2.259 6.366z" stroke="#312D75" stroke-width="2"/><path d="M522.868 147.868v12.766h16.564v7.769h-16.564v13.039h21.287v8.042h-31.623v-49.658h31.623v8.042h-21.287z" stroke="#312D75" stroke-width="2"/><path clip-rule="evenodd" d="M604.062 189.484h9.274l-11.567-17.864a8.635 8.635 0 00-1.54-1.814 9.508 9.508 0 00-1.849-1.335c1.666-.57 3.149-1.323 4.45-2.259a14.687 14.687 0 003.285-3.217 13.485 13.485 0 002.019-4.004c.479-1.483.719-3.046.719-4.689 0-2.122-.365-4.061-1.095-5.818-.73-1.779-1.882-3.308-3.457-4.586-1.574-1.277-3.593-2.27-6.057-2.977-2.465-.73-5.431-1.095-8.899-1.095h-15.606v49.658h10.267v-18.925h3.491c.913 0 1.597.137 2.054.41.479.274.912.708 1.3 1.301l9.446 15.23c.776 1.323 2.031 1.984 3.765 1.984zm-10.473-26.763c-1.209.411-2.646.616-4.312.616h-5.271v-15.708h5.339c3.195 0 5.567.65 7.119 1.95 1.574 1.301 2.361 3.126 2.361 5.476 0 1.187-.182 2.282-.547 3.286a6.937 6.937 0 01-1.711 2.635c-.776.73-1.769 1.312-2.978 1.745z" stroke="#312D75" stroke-width="2"/><path d="M682.634 139.826v49.658h-5.305c-.798 0-1.472-.125-2.019-.376-.548-.274-1.084-.73-1.609-1.369l-24.744-31.486c.069.799.115 1.586.137 2.362.046.775.069 1.494.069 2.156v28.713h-9.07v-49.658h5.408c.433 0 .798.022 1.095.068.319.023.605.103.856.24.251.114.49.273.718.479.228.205.479.479.753.821l24.915 31.623a52.07 52.07 0 01-.205-2.498 41.745 41.745 0 01-.069-2.328v-28.405h9.07zm151.413 0l-19.987 49.658h-9.309l-19.987-49.658h8.282c.89 0 1.609.216 2.156.65.571.411.993.947 1.267 1.608l10.746 28.612c.411 1.072.81 2.247 1.198 3.525a54.68 54.68 0 011.129 3.97c.297-1.392.616-2.715.959-3.97a42.4 42.4 0 011.163-3.525l10.678-28.612c.228-.57.627-1.083 1.198-1.54.593-.479 1.323-.718 2.19-.718h8.317z" stroke="#312D75" stroke-width="2"/><path clip-rule="evenodd" d="M892.026 189.484H900l-19.371-49.658h-10.507l-19.405 49.658h8.043c.867 0 1.586-.228 2.156-.684.57-.479.97-1.004 1.198-1.574l3.354-9.48h19.781l3.354 9.48a4.021 4.021 0 001.232 1.642c.571.411 1.301.616 2.191.616zm-14.648-34.052l5.373 15.195H868l5.339-15.127c.32-.798.651-1.734.993-2.806a48.78 48.78 0 001.027-3.559c.319 1.254.65 2.418.992 3.49a57.137 57.137 0 001.027 2.807z" stroke="#312D75" stroke-width="2"/><path d="M762.539 156.952c-.258-.97-.665-2.138-1.304-3.49 2.791.16 5.848.651 9.241 1.619 1.895.542 3.097 1.285 3.838 2.092.739.805 1.021 1.676 1.068 2.481.047.806-.141 1.545-.342 2.084-.1.27-.203.489-.281.64-.039.075-.072.134-.094.174l-.027.045-.007.011-.001.003-.001.001h0l-.001-.001-.003.008h0l-.001.002-.004.009-.02.039a2.348 2.348 0 01-.094.154c-.09.135-.239.336-.477.593-.476.513-1.304 1.25-2.711 2.139-2.814 1.777-7.94 4.16-17.188 6.572l.013.049-.013-.049c-9.244 2.414-19.25 3.079-26.946 3.14-3.848.03-7.117-.09-9.425-.218a111.335 111.335 0 01-3.407-.241l-.113-.01-.071-.007-.046-.004-.012-.001-.003-.001h0l-.001.007v-.007h-.003c-1.365-.033-3.393-.273-5.507-.752s-4.309-1.195-6.008-2.179c-1.701-.985-2.894-2.23-3.028-3.763-.135-1.533.786-3.377 3.373-5.563l-.032-.039.032.039c1.342-1.135 3.23-2.084 5.114-2.838 1.844-.737 3.681-1.286 4.989-1.637-.527 2.073-.813 4.142-1.012 6.15-.16 1.615.352 2.845 1.211 3.777.857.931 2.058 1.564 3.273 1.996 1.217.431 2.452.662 3.383.785a18.764 18.764 0 001.531.136l.022.001h.006l.004.001.018.001.072.006a51.349 51.349 0 001.353.086c.928.05 2.266.104 3.903.123 3.274.039 7.747-.064 12.538-.627 10.241-1.203 14.06-2.486 19.384-4.543 2.673-1.03 3.731-2.428 4.116-3.577a3.744 3.744 0 00.192-1.447 3.186 3.186 0 00-.085-.549l-.009-.031.001-.003.005-.043c.004-.037.009-.092.014-.166.009-.146.014-.364.001-.65-.025-.574-.124-1.422-.418-2.527zm-25.755-17.423h-.006l-.017-.001-.068-.001a16.58 16.58 0 00-1.257.036c-.853.057-2.067.193-3.511.511a25.656 25.656 0 00-10.378 4.898c-4.288 3.38-6.596 7.172-7.901 11.013l-.012.003-.113.025c-.1.024-.246.058-.434.105a44.883 44.883 0 00-6.706 2.295c-3.938 1.714-8.471 4.428-10.824 8.426l.044.025-.044-.025c-.592 1.006-.712 1.947-.463 2.82.248.872.861 1.67 1.723 2.398 1.724 1.456 4.46 2.643 7.336 3.579 2.878.936 5.901 1.623 8.205 2.076 1.152.227 2.124.395 2.808.506.342.056.613.097.797.125l.211.031.051.007.014.021.078.114c.069.099.173.245.311.429.276.369.69.891 1.238 1.509a28.795 28.795 0 004.901 4.381c4.332 3.055 10.776 5.747 19.219 4.295 8.44-1.452 13.646-5.443 16.741-9.073a23.917 23.917 0 003.2-4.81c.316-.635.536-1.157.677-1.521a11.786 11.786 0 00.191-.531l.004-.013c5.635-1.633 9.826-3.729 12.561-5.974 2.738-2.246 4.024-4.648 3.825-6.884-.199-2.238-1.882-4.289-5.034-5.839-3.147-1.548-7.765-2.601-13.862-2.845a38.11 38.11 0 00-2.81-4.243l-.04.03.04-.03c-3.117-4.119-8.296-6.085-12.687-7.021a39.872 39.872 0 00-5.653-.775 34.883 34.883 0 00-1.723-.071 21.26 21.26 0 00-.47-.003l-.123.001-.031.001h-.008z" fill="#ED1C24" stroke="#ED1C24" stroke-width=".1"/></g><g clip-path="url(#clip1)"><path d="M374.855 217.507c4.009 0 7.267 1.142 9.773 3.424 2.607 2.184 3.91 5.013 3.91 8.486v82.479c0 3.771-1.203 6.749-3.609 8.933-2.406 2.183-5.614 3.275-9.623 3.275-3.709 0-6.767-.943-9.172-2.829-2.306-1.985-3.609-4.665-3.91-8.039-2.105 3.474-5.212 6.203-9.322 8.188-4.01 1.985-8.471 2.978-13.383 2.978-6.315 0-11.979-1.588-16.991-4.764-4.912-3.276-8.771-7.841-11.578-13.697-2.806-5.856-4.21-12.556-4.21-20.099 0-7.543 1.354-14.143 4.06-19.801 2.807-5.756 6.666-10.173 11.578-13.25 5.012-3.077 10.726-4.615 17.141-4.615 4.712 0 9.022.943 12.932 2.829 4.009 1.886 7.117 4.416 9.322 7.593v-29.627c0-3.474 1.153-6.253 3.458-8.337 2.406-2.085 5.614-3.127 9.624-3.127zm-27.216 87.094c4.711 0 8.32-1.588 10.826-4.764 2.506-3.176 3.759-7.742 3.759-13.697 0-5.856-1.253-10.322-3.759-13.399-2.506-3.176-6.115-4.764-10.826-4.764-4.611 0-8.17 1.538-10.676 4.615-2.506 3.077-3.759 7.494-3.759 13.25 0 5.955 1.253 10.571 3.759 13.846 2.606 3.275 6.165 4.913 10.676 4.913z" fill="url(#paint0_linear)"/><path d="M416.889 324.402c-3.724 0-7.676-.993-10.225-2.979-2.45-2.085-3.675-5.162-3.675-9.233v-51.229c0-4.07 1.225-7.541 3.675-9.526 2.549-2.085 6.501-3.128 10.225-3.128 3.724 0 6.812 1.043 9.262 3.128 2.548 1.985 3.822 5.456 3.822 9.526v51.229c0 4.071-1.274 7.148-3.822 9.233-2.45 1.986-5.538 2.979-9.262 2.979zm0-86.077c-4.411 0-7.939-1.142-10.585-3.425-2.548-2.383-3.823-5.51-3.823-9.382s1.275-6.95 3.823-9.233c2.646-2.284 6.174-3.425 10.585-3.425 4.312 0 7.792 1.141 10.438 3.425 2.646 2.283 3.969 5.361 3.969 9.233 0 3.872-1.323 6.999-3.969 9.382-2.548 2.283-6.028 3.425-10.438 3.425z" fill="url(#paint1_linear)"/><path fill-rule="evenodd" clip-rule="evenodd" d="M510.871 246.154c4 0 7.2 1.14 9.6 3.42 2.399 2.182 3.599 5.106 3.599 8.775v53.539c0 12.096-3.699 21.266-11.099 27.513-7.299 6.246-18.049 9.369-32.248 9.369-5.499 0-10.699-.496-15.599-1.487-4.9-.992-9.049-2.429-12.449-4.313-1.8-.991-3.25-2.28-4.35-3.867-1-1.586-1.5-3.371-1.5-5.354 0-2.875.7-5.205 2.1-6.989 1.5-1.785 3.4-2.677 5.7-2.677 1.8 0 5.05.743 9.749 2.23 3.1.992 5.85 1.735 8.25 2.231 2.4.595 4.849.893 7.349.893 6.1 0 10.55-1.289 13.349-3.867 2.9-2.479 4.35-6.445 4.35-11.898v-5.651c-2.2 3.272-5.35 5.899-9.449 7.882-4.1 1.884-8.55 2.826-13.349 2.826-6.4 0-12.1-1.487-17.099-4.462-5-2.974-8.9-7.188-11.7-12.641-2.799-5.552-4.199-11.947-4.199-19.185 0-7.237 1.4-13.632 4.199-19.184 2.8-5.553 6.7-9.816 11.7-12.79 4.999-3.074 10.699-4.611 17.099-4.611 4.899 0 9.399.992 13.499 2.975 4.099 1.983 7.249 4.709 9.449 8.179.2-3.371 1.45-5.998 3.75-7.882 2.4-1.983 5.5-2.974 9.299-2.974zm-27.898 52.795c4.7 0 8.35-1.437 10.95-4.313 2.599-2.875 3.899-6.94 3.899-12.195s-1.3-9.369-3.899-12.343c-2.6-2.975-6.25-4.462-10.95-4.462-4.6 0-8.199 1.487-10.799 4.462-2.6 2.875-3.9 6.989-3.9 12.343 0 5.156 1.3 9.221 3.9 12.195 2.7 2.876 6.299 4.313 10.799 4.313z" fill="url(#paint2_linear)"/><path d="M553.527 324.402c-3.725 0-7.677-.993-10.225-2.979-2.45-2.085-3.675-5.162-3.675-9.233v-51.229c0-4.07 1.225-7.541 3.675-9.526 2.548-2.085 6.5-3.128 10.225-3.128 3.724 0 6.812 1.043 9.262 3.128 2.548 1.985 3.822 5.456 3.822 9.526v51.229c0 4.071-1.274 7.148-3.822 9.233-2.45 1.986-5.538 2.979-9.262 2.979zm0-86.077c-4.411 0-7.939-1.142-10.585-3.425-2.549-2.383-3.823-5.51-3.823-9.382s1.274-6.95 3.823-9.233c2.646-2.284 6.174-3.425 10.585-3.425 4.312 0 7.792 1.141 10.438 3.425 2.646 2.283 3.969 5.361 3.969 9.233 0 3.872-1.323 6.999-3.969 9.382-2.548 2.283-6.028 3.425-10.438 3.425z" fill="url(#paint3_linear)"/><path fill-rule="evenodd" clip-rule="evenodd" d="M630.733 245.856c6.299 0 11.9 1.636 16.799 4.908 5 3.173 8.849 7.684 11.549 13.534 2.801 5.849 4.2 12.542 4.2 20.077 0 7.535-1.399 14.178-4.2 19.928-2.7 5.651-6.498 10.014-11.399 13.087-4.899 3.074-10.548 4.611-16.949 4.611-4.698 0-9.048-.942-13.049-2.826-3.9-1.884-6.948-4.412-9.15-7.585v25.282c0 3.471-1.2 6.247-3.6 8.329-2.399 2.082-5.549 3.123-9.449 3.123-4.098 0-7.398-1.14-9.899-3.421-2.499-2.181-3.75-5.007-3.75-8.477v-78.077c0-3.669 1.151-6.593 3.45-8.775 2.4-2.28 5.6-3.42 9.599-3.42 3.801 0 6.851.991 9.149 2.974 2.4 1.983 3.75 4.611 4.05 7.882 2.1-3.47 5.151-6.196 9.15-8.179 4.1-1.983 8.6-2.975 13.499-2.975zm-8.1 56.365c4.602 0 8.1-1.537 10.5-4.61 2.501-3.074 3.749-7.486 3.749-13.236 0-6.048-1.248-10.658-3.749-13.831-2.499-3.272-6.048-4.908-10.65-4.908-4.599 0-8.148 1.586-10.649 4.759-2.499 3.173-3.75 7.733-3.75 13.682 0 5.85 1.251 10.361 3.75 13.534 2.501 3.073 6.101 4.61 10.799 4.61z" fill="url(#paint4_linear)"/><path fill-rule="evenodd" clip-rule="evenodd" d="M735.127 254.036c-5.4-5.453-13.799-8.18-25.199-8.18-5.099 0-10.298.546-15.599 1.636-5.298 1.091-9.698 2.529-13.199 4.313-1.998 1.091-3.45 2.33-4.349 3.718-.9 1.388-1.35 3.173-1.35 5.354 0 2.875.75 5.205 2.25 6.99 1.499 1.784 3.5 2.677 5.999 2.677 1.602 0 3.551-.397 5.85-1.19 7.901-2.776 13.9-4.164 17.999-4.164 3.8 0 6.5.793 8.099 2.379 1.601 1.488 2.4 3.966 2.4 7.436v1.785h-4.05c-10.199 0-18.299.694-24.298 2.082-6 1.388-10.398 3.668-13.199 6.841-2.7 3.074-4.05 7.238-4.05 12.493 0 4.56 1.151 8.675 3.45 12.343 2.399 3.569 5.651 6.395 9.749 8.477 4.1 1.983 8.699 2.975 13.799 2.975 4.601 0 8.55-.992 11.849-2.975 3.3-1.983 5.652-4.759 7.05-8.328.201 3.371 1.401 6.048 3.6 8.031 2.3 1.983 5.201 2.974 8.699 2.974 4.001 0 7.1-1.041 9.299-3.123 2.301-2.181 3.45-5.155 3.45-8.923v-31.082c0-11.006-2.748-19.185-8.249-24.539zm-20.549 46.549c-2.298 2.479-5.25 3.718-8.849 3.718-2.299 0-4.2-.744-5.7-2.231-1.398-1.487-2.1-3.371-2.1-5.651 0-2.677 1.35-4.561 4.05-5.651 2.7-1.19 7.25-1.785 13.649-1.785h2.4v1.785c0 3.965-1.149 7.237-3.45 9.815z" fill="url(#paint5_linear)"/><path d="M793.888 322.001c-11.999 0-21.499-3.371-28.498-10.113-7.001-6.742-10.499-15.913-10.499-27.513 0-7.635 1.698-14.376 5.099-20.226 3.399-5.85 8.148-10.361 14.25-13.534 6.198-3.172 13.247-4.759 21.148-4.759 4.2 0 8.4.546 12.599 1.636 4.2 1.091 7.899 2.628 11.1 4.611 3.099 1.883 4.649 4.759 4.649 8.625 0 3.074-.75 5.602-2.249 7.585-1.401 1.884-3.252 2.826-5.55 2.826a15.9 15.9 0 01-4.35-.595c-1.401-.496-2.951-1.19-4.65-2.082-2-.893-3.701-1.537-5.099-1.934-1.401-.495-2.952-.743-4.65-.743-9.899 0-14.849 5.998-14.849 17.995 0 5.949 1.248 10.509 3.75 13.682 2.598 3.073 6.299 4.61 11.099 4.61 1.698 0 3.249-.198 4.65-.595 1.5-.495 3.15-1.189 4.949-2.082 1.999-.892 3.6-1.537 4.8-1.933 1.299-.496 2.7-.744 4.2-.744 2.298 0 4.149.992 5.549 2.975 1.5 1.883 2.25 4.362 2.25 7.436 0 1.883-.401 3.619-1.2 5.205-.8 1.487-1.901 2.627-3.299 3.42-6.9 4.165-15.299 6.247-25.199 6.247z" fill="url(#paint6_linear)"/><path d="M856.063 218.321c2.07 1.658 3.777 4.027 4.199 6.944v40.955l15.68-16.268c2.499-2.578 5.4-3.867 8.7-3.867 3.2 0 5.999 1.24 8.399 3.718 2.499 2.38 3.75 5.106 3.75 8.18 0 3.073-1.299 5.899-3.9 8.477l-16.349 16.061 18.599 17.698c2.601 2.479 3.9 5.354 3.9 8.626 0 3.272-1.2 6.196-3.6 8.774-2.301 2.578-5.1 3.867-8.399 3.867-2.8 0-5.601-1.24-8.4-3.718l-18.61-17.801c0 6.215 1.73 14.071-4.039 18.533-2.499 2.082-5.579 3.032-9.38 3.032-3.8 0-6.999-1.041-9.599-3.124-2.499-2.082-3.75-5.155-3.75-9.22v-81.647c0-4.065 1.251-7.138 3.75-9.22 2.6-2.083 5.799-3.124 9.599-3.124 3.801 0 6.951 1.041 9.45 3.124z" fill="url(#paint7_linear)"/></g><g clip-path="url(#clip2)"><path d="M333.5 0h73c10.483 0 18.869 6.29 18.869 16.772C425.369 56.977 393.204 86 353 86l-62.502 1.356c-15.998 0-27.998 13.088-27.998 29.144l-1.074-29.144C261.426 39.11 285.255 0 333.5 0z" fill="#3B33CC"/><path d="M175.41 87.356C175.41 39.11 214.52 0 262.766 0h87.355c-48.245 0-87.355 39.11-87.355 87.356v87.355H175.41V87.356z" fill="#312D75"/><path d="M262.765 262.067c0-48.245-18.265-91.067-87.356-92.567v63.495c0 16.056-13.016 29.072-29.072 29.072H18.169C8.52 262.067.7 269.889.7 279.538v41.943a17.47 17.47 0 004.804 12.033l15.112 15.908H175.41c48.246 0 87.356-39.11 87.356-87.355z" fill="#312D75"/><path d="M0 328.807V247.5C0 199.255 37.755 168 86 168l31.126 6.711c-16.056 0-29.072 13.017-29.072 29.072v72.843c0 40.204-25.507 72.796-67.438 72.796-10.483 0-20.616-5.94-20.616-20.615z" fill="url(#paint8_linear)"/><path d="M262.766 262.067c0-48.245-43.521-87.356-91.766-87.356V87.356c48.245 0 91.766 39.11 91.766 87.355v87.356z" fill="#3B33CC"/><path d="M87.496 87.356C39.25 87.356 0 126.466 0 174.71v87.356c0-48.245 39.25-87.356 87.496-87.356h87.914V87.356H87.496z" fill="#F8991F"/></g><defs><linearGradient id="paint0_linear" x1="866.153" y1="215.197" x2="866.153" y2="321.532" gradientUnits="userSpaceOnUse"><stop stop-color="#F8991F"/><stop offset="1" stop-color="#F8991F"/></linearGradient><linearGradient id="paint1_linear" x1="866.153" y1="215.197" x2="866.153" y2="321.532" gradientUnits="userSpaceOnUse"><stop stop-color="#F8991F"/><stop offset="1" stop-color="#F8991F"/></linearGradient><linearGradient id="paint2_linear" x1="866.153" y1="215.197" x2="866.153" y2="321.532" gradientUnits="userSpaceOnUse"><stop stop-color="#F8991F"/><stop offset="1" stop-color="#F8991F"/></linearGradient><linearGradient id="paint3_linear" x1="866.153" y1="215.197" x2="866.153" y2="321.532" gradientUnits="userSpaceOnUse"><stop stop-color="#F8991F"/><stop offset="1" stop-color="#F8991F"/></linearGradient><linearGradient id="paint4_linear" x1="866.153" y1="215.197" x2="866.153" y2="321.532" gradientUnits="userSpaceOnUse"><stop stop-color="#F8991F"/><stop offset="1" stop-color="#F8991F"/></linearGradient><linearGradient id="paint5_linear" x1="866.153" y1="215.197" x2="866.153" y2="321.532" gradientUnits="userSpaceOnUse"><stop stop-color="#F8991F"/><stop offset="1" stop-color="#F8991F"/></linearGradient><linearGradient id="paint6_linear" x1="866.153" y1="215.197" x2="866.153" y2="321.532" gradientUnits="userSpaceOnUse"><stop stop-color="#F8991F"/><stop offset="1" stop-color="#F8991F"/></linearGradient><linearGradient id="paint7_linear" x1="866.153" y1="215.197" x2="866.153" y2="321.532" gradientUnits="userSpaceOnUse"><stop stop-color="#F8991F"/><stop offset="1" stop-color="#F8991F"/></linearGradient><linearGradient id="paint8_linear" x1="58.563" y1="174.711" x2="21.315" y2="349.422" gradientUnits="userSpaceOnUse"><stop stop-color="#F08A06"/><stop offset="1" stop-color="#F8991F"/></linearGradient><clipPath id="clip0"><path fill="#fff" transform="translate(311.306 139.278)" d="M0 0h588.694v50.754H0z"/></clipPath><clipPath id="clip1"><path fill="#fff" transform="translate(306.74 212.86)" d="M0 0h592.301v135.91H0z"/></clipPath><clipPath id="clip2"><path fill="#fff" d="M0 0h437.477v349.422H0z"/></clipPath></defs></svg>