<svg width="97" height="100" fill="none" xmlns="http://www.w3.org/2000/svg"><path d="M6.644 65.517c0 1.905-1.487 3.449-3.322 3.449S0 67.422 0 65.517c0-1.904 1.487-3.448 3.322-3.448s3.322 1.544 3.322 3.448zm29.897 0c0 1.905-1.487 3.449-3.322 3.449s-3.322-1.544-3.322-3.449c0-1.904 1.488-3.448 3.322-3.448 1.835 0 3.322 1.544 3.322 3.448zm30.562-31.034c0 1.904-1.488 3.448-3.322 3.448-1.835 0-3.322-1.544-3.322-3.448 0-1.905 1.487-3.448 3.322-3.448 1.834 0 3.322 1.543 3.322 3.448zm29.897 0c0 1.904-1.487 3.448-3.322 3.448s-3.322-1.544-3.322-3.448c0-1.905 1.487-3.448 3.322-3.448S97 32.578 97 34.483zM7.308 96.552c0 1.904-1.487 3.448-3.322 3.448-1.834 0-3.322-1.544-3.322-3.448 0-1.905 1.488-3.449 3.322-3.449 1.835 0 3.322 1.544 3.322 3.449zm29.897 0c0 1.904-1.487 3.448-3.322 3.448-1.834 0-3.322-1.544-3.322-3.448 0-1.905 1.488-3.449 3.322-3.449 1.835 0 3.322 1.544 3.322 3.449zm29.233-31.035c0 1.905-1.487 3.449-3.322 3.449-1.834 0-3.321-1.544-3.321-3.449 0-1.904 1.487-3.448 3.322-3.448 1.834 0 3.321 1.544 3.321 3.448zm29.898 0c0 1.905-1.488 3.449-3.322 3.449-1.835 0-3.322-1.544-3.322-3.449 0-1.904 1.487-3.448 3.322-3.448 1.834 0 3.322 1.544 3.322 3.448zM7.308 34.483c0 1.904-1.487 3.448-3.322 3.448-1.834 0-3.322-1.544-3.322-3.448 0-1.905 1.488-3.448 3.322-3.448 1.835 0 3.322 1.543 3.322 3.448zm29.897 0c0 1.904-1.487 3.448-3.322 3.448-1.834 0-3.322-1.544-3.322-3.448 0-1.905 1.488-3.448 3.322-3.448 1.835 0 3.322 1.543 3.322 3.448zM67.103 3.448c0 1.905-1.488 3.449-3.322 3.449-1.835 0-3.322-1.544-3.322-3.449C60.459 1.544 61.946 0 63.78 0s3.322 1.544 3.322 3.448zm29.897 0c0 1.905-1.487 3.449-3.322 3.449s-3.322-1.544-3.322-3.449C90.356 1.544 91.843 0 93.678 0S97 1.544 97 3.448z" fill="#D1E9FF"/></svg>