<svg width="97" height="100" fill="none" xmlns="http://www.w3.org/2000/svg"><path d="M33.423 93.305c1.805 0 3.269 1.499 3.269 3.348 0 1.848-1.464 3.347-3.269 3.347-1.805 0-3.269-1.499-3.269-3.347 0-1.85 1.464-3.348 3.269-3.348zm0-30.878c1.805 0 3.269 1.498 3.269 3.347s-1.464 3.347-3.269 3.347c-1.805 0-3.269-1.498-3.269-3.347s1.464-3.347 3.269-3.347zM3.269 30.879c1.805 0 3.269 1.498 3.269 3.347s-1.464 3.348-3.27 3.348c-1.805 0-3.268-1.5-3.268-3.348 0-1.849 1.463-3.347 3.269-3.347zM3.269 0c1.805 0 3.269 1.5 3.269 3.347 0 1.85-1.464 3.348-3.27 3.348C1.464 6.695 0 5.196 0 3.347 0 1.5 1.463 0 3.269 0zm60.308 92.636c1.805 0 3.269 1.499 3.269 3.347 0 1.849-1.464 3.348-3.269 3.348-1.805 0-3.269-1.5-3.269-3.348 0-1.849 1.464-3.347 3.27-3.347zm30.154.194c1.806 0 3.269 1.499 3.269 3.347 0 1.849-1.463 3.348-3.269 3.348-1.805 0-3.269-1.499-3.269-3.348 0-1.848 1.464-3.347 3.27-3.347zM63.577 61.757c1.805 0 3.269 1.499 3.269 3.348 0 1.848-1.464 3.347-3.269 3.347-1.805 0-3.269-1.499-3.269-3.347 0-1.85 1.464-3.348 3.27-3.348zm30.154.194C95.537 61.951 97 63.45 97 65.3c0 1.848-1.463 3.347-3.269 3.347-1.805 0-3.269-1.499-3.269-3.347 0-1.85 1.464-3.348 3.27-3.348zM33.423 31.548c1.805 0 3.269 1.499 3.269 3.347 0 1.849-1.464 3.348-3.269 3.348-1.805 0-3.269-1.499-3.269-3.348 0-1.848 1.464-3.347 3.269-3.347zm0-30.878c1.805 0 3.269 1.498 3.269 3.347s-1.464 3.347-3.269 3.347c-1.805 0-3.269-1.498-3.269-3.347S31.618.67 33.423.67zM3.269 92.636c1.805 0 3.269 1.499 3.269 3.347 0 1.849-1.464 3.348-3.27 3.348C1.464 99.33 0 97.83 0 95.983c0-1.849 1.463-3.347 3.269-3.347zm0-30.879c1.805 0 3.269 1.499 3.269 3.348 0 1.848-1.464 3.347-3.27 3.347C1.464 68.452 0 66.953 0 65.105c0-1.85 1.463-3.348 3.269-3.348z" fill="#D1E9FF"/></svg>