<svg width="24" height="27" fill="none" xmlns="http://www.w3.org/2000/svg"><path d="M16.696 0a.522.522 0 00-.522.522v2.4a.522.522 0 001.043 0v-2.4A.522.522 0 0016.696 0zm-12 16.278a.522.522 0 100 1.044.522.522 0 000-1.044z" fill="#312D75"/><path d="M24 15.235a2.09 2.09 0 00-2.087-2.087h-3.895c.603-1.545.847-3.363.8-4.98a5.928 5.928 0 00-.037-.6 2.09 2.09 0 00-2.085-2.038 2.09 2.09 0 00-2.087 2.087v.522c0 3.3-4.238 5.154-7.435 5.949a1.567 1.567 0 00-1.435-.94H.522A.522.522 0 000 13.67v12.52c0 .288.234.522.522.522h5.217c.637 0 1.185-.382 1.43-.93l.737.192c1.822.476 2.825.738 5.266.738h5.61a2.09 2.09 0 002.088-2.087c0-.429-.13-.828-.354-1.16a2.087 2.087 0 001.397-1.97c0-.428-.127-.828-.35-1.162a2.088 2.088 0 001.04-3.129A2.088 2.088 0 0024 15.235zM6.26 25.148a.522.522 0 01-.52.522H1.042V14.19H5.74c.288 0 .522.234.522.522v10.435zm15.653-8.87h-2.609a.522.522 0 000 1.044h1.566a1.045 1.045 0 010 2.087h-2.61a.522.522 0 000 1.043h1.566a1.043 1.043 0 110 2.087h-2.609a.522.522 0 000 1.044h1.566a1.045 1.045 0 010 2.087h-5.611c-2.307 0-3.207-.236-5.002-.704l-.866-.225v-9.61c3.776-.899 8.348-3.094 8.348-6.992v-.522a1.045 1.045 0 012.087-.001v.001c0 .227.283 3.01-.852 5.53H15.13a.522.522 0 000 1.044h6.783a1.045 1.045 0 010 2.087z" fill="#312D75"/><path d="M4.696 18.365a.522.522 0 00-.522.522v4.174a.522.522 0 001.043 0v-4.174a.522.522 0 00-.521-.522zm7.826-11.791h-2.087a.522.522 0 000 1.043h2.087a.522.522 0 000-1.043zm10.434 0H20.87a.522.522 0 000 1.043h2.086a.522.522 0 000-1.043zM21.491 2.3a.522.522 0 00-.737 0l-1.476 1.475a.522.522 0 00.738.738l1.476-1.475a.522.522 0 000-.738zm-7.378 1.475L12.638 2.3a.522.522 0 00-.738.738l1.475 1.475a.522.522 0 00.738-.738z" fill="#312D75"/></svg>