<svg width="28" height="27" fill="none" xmlns="http://www.w3.org/2000/svg"><path d="M27.946 14.8a11.14 11.14 0 00-3.181-6.744 10.968 10.968 0 00-5.402-2.98V3.68a1.87 1.87 0 00-.45-3.68h-3.937a1.87 1.87 0 00-.449 3.68v1.4a10.967 10.967 0 00-5.385 2.976c-.336.337-.645.691-.929 1.059a.54.54 0 00-.041-.002H4.275a.548.548 0 00-.547.549c0 .303.245.55.547.55h3.194a11.032 11.032 0 00-.97 2.11H.547a.548.548 0 00-.547.55c0 .304.245.55.547.55H6.19a11.218 11.218 0 00-.272 2.111H3.5a.548.548 0 00-.547.55c0 .303.245.549.547.549h2.436a11.2 11.2 0 00.341 2.112H2.734a.548.548 0 00-.546.549c0 .303.244.55.546.55h3.892a11.038 11.038 0 002.516 3.907A11.046 11.046 0 0016.945 27c2.134 0 4.241-.62 6.029-1.79a.551.551 0 00.16-.76.546.546 0 00-.757-.16c-3.913 2.56-9.154 2.006-12.462-1.317-3.88-3.898-3.88-10.241 0-14.14 3.881-3.898 10.196-3.898 14.076 0 3.304 3.318 3.858 8.579 1.318 12.508a.55.55 0 00.16.76.545.545 0 00.757-.162 11.172 11.172 0 001.72-7.14zM14.211 1.867c0-.424.343-.77.765-.77h3.938a.768.768 0 010 1.539h-3.938a.768.768 0 01-.765-.77zm1.41 3.023V3.736h2.648v1.153a11.093 11.093 0 00-2.648.002z" fill="#312D75"/><path d="M24.378 22.812a.549.549 0 10.387.938.555.555 0 000-.777.55.55 0 00-.387-.161zM16.953 7.38c-4.678 0-8.483 3.824-8.483 8.523 0 4.7 3.805 8.522 8.483 8.522 4.678 0 8.484-3.823 8.484-8.522 0-4.7-3.806-8.522-8.484-8.522zm0 15.947c-4.074 0-7.39-3.33-7.39-7.424 0-4.093 3.316-7.424 7.39-7.424 4.075 0 7.39 3.33 7.39 7.424 0 4.093-3.315 7.424-7.39 7.424z" fill="#312D75"/><path d="M20.413 11.651l-2.709 2.721a1.683 1.683 0 00-1.501 0l-1.212-1.218a.545.545 0 00-.774 0 .551.551 0 000 .777l1.212 1.218a1.705 1.705 0 001.524 2.461 1.705 1.705 0 001.524-2.461l2.71-2.721a.551.551 0 000-.777.545.545 0 00-.774 0zm-3.46 4.86a.608.608 0 010-1.216.608.608 0 010 1.216zM22.8 15.36h-.506a.548.548 0 00-.547.55c0 .303.245.55.547.55h.507a.548.548 0 00.547-.55.548.548 0 00-.547-.55zm-11.187-.013h-.507a.548.548 0 00-.547.55c0 .303.245.549.547.549h.507a.548.548 0 00.547-.55.548.548 0 00-.547-.55zm5.347-4.259a.548.548 0 00.547-.55v-.509a.548.548 0 00-.547-.55.548.548 0 00-.547.55v.51c0 .303.245.549.547.549zm-.013 9.63a.548.548 0 00-.547.55v.509c0 .303.245.55.547.55a.548.548 0 00.547-.55v-.51a.548.548 0 00-.547-.549zm-16.4-1.975a.55.55 0 000 1.1.55.55 0 000-1.1z" fill="#312D75"/></svg>