<svg width="200" height="200" fill="none" xmlns="http://www.w3.org/2000/svg"><path d="M100 200c55.228 0 100-44.772 100-100S155.228 0 100 0 0 44.772 0 100s44.772 100 100 100z" fill="#60FC7C"/><path opacity=".5" d="M198.73 115.976c-7.648 47.635-48.94 84.025-98.731 84.025-8.714 0-17.168-1.115-25.226-3.209l-36.804-36.804 32.175-8.072 35.161 7.298 29.19-10.283 22.224-30.517-.995-38.478-25.983-32.949 68.989 68.989z" fill="#26D044"/><path fill-rule="evenodd" clip-rule="evenodd" d="M100.001 36.196c-35.18 0-63.801 28.621-63.801 63.802 0 12.375 3.513 24.262 10.19 34.578l-9.693 21.35a5.572 5.572 0 006.548 7.676l26.705-7.327a63.77 63.77 0 0030.051 7.526c35.181 0 63.802-28.622 63.802-63.803 0-35.18-28.621-63.802-63.802-63.802zm0 116.462a52.587 52.587 0 01-26.514-7.17 5.57 5.57 0 00-4.284-.561l-17.445 4.786 6.077-13.387a5.571 5.571 0 00-.555-5.563c-6.5-9.009-9.935-19.648-9.935-30.765 0-29.036 23.623-52.659 52.659-52.659 29.036 0 52.659 23.623 52.659 52.659-.003 29.037-23.625 52.66-52.662 52.66z" fill="#fff"/><path fill-rule="evenodd" clip-rule="evenodd" d="M124.53 109.554c-2.672-1.598-6.148-3.382-9.297-2.095-2.415.988-3.956 4.768-5.521 6.699-.804.991-1.762 1.145-2.994.649-9.065-3.611-16.013-9.662-21.015-18-.846-1.296-.695-2.318.327-3.519 1.512-1.779 3.408-3.798 3.817-6.197.409-2.398-.716-5.201-1.708-7.336-1.267-2.728-2.682-6.62-5.414-8.163-2.513-1.42-5.822-.625-8.06 1.198-3.865 3.146-5.727 8.075-5.672 12.962.016 1.388.188 2.773.511 4.113.78 3.223 2.27 6.232 3.946 9.094a71.55 71.55 0 004.12 6.264c4.848 6.586 10.881 12.31 17.866 16.588 3.49 2.138 7.248 4.012 11.141 5.298 4.365 1.442 8.255 2.944 12.968 2.049 4.936-.937 9.802-3.991 11.76-8.748.58-1.408.87-2.976.547-4.464-.673-3.078-4.835-4.905-7.322-6.392z" fill="#fff"/></svg>